<svg width="23" height="21" viewBox="0 0 23 21" fill="none" xmlns="http://www.w3.org/2000/svg">
<path d="M2 9.2C1.28203 9.2 0.7 9.78203 0.7 10.5C0.7 11.218 1.28203 11.8 2 11.8L2 10.5L2 9.2ZM21.9192 11.4192C22.4269 10.9116 22.4269 10.0884 21.9192 9.58076L13.6461 1.30761C13.1384 0.799932 12.3153 0.799931 11.8076 1.30761C11.2999 1.81529 11.2999 2.63841 11.8076 3.14609L19.1615 10.5L11.8076 17.8539C11.2999 18.3616 11.2999 19.1847 11.8076 19.6924C12.3153 20.2001 13.1384 20.2001 13.6461 19.6924L21.9192 11.4192ZM2 10.5L2 11.8L21 11.8L21 10.5L21 9.2L2 9.2L2 10.5Z" fill="#505B79"/>
</svg>
