<svg width="352" height="352" viewBox="0 0 352 352" fill="none" xmlns="http://www.w3.org/2000/svg">
<g clip-path="url(#clip0_14473_75983)">
<path d="M282.965 47.6501H24.4422C20.5326 47.6501 17.3633 50.8194 17.3633 54.729V253.895C17.3633 257.805 20.5326 260.974 24.4422 260.974H282.965C286.875 260.974 290.044 257.805 290.044 253.895V54.729C290.044 50.8194 286.875 47.6501 282.965 47.6501Z" fill="url(#paint0_linear_14473_75983)" stroke="#062D61" stroke-width="0.884869" stroke-miterlimit="10"/>
<g opacity="0.66">
<path d="M17.3633 78.6358V55.6646C17.3633 51.2048 20.9735 47.5946 25.4333 47.5946H282.01C286.434 47.5946 290.044 51.2048 290.044 55.6292V78.6358" fill="url(#paint1_linear_14473_75983)"/>
<path d="M17.3633 78.6358V55.6646C17.3633 51.2048 20.9735 47.5946 25.4333 47.5946H282.01C286.434 47.5946 290.044 51.2048 290.044 55.6292V78.6358" stroke="#062D61" stroke-width="0.884869" stroke-miterlimit="10"/>
</g>
<path d="M17.3633 78.6358V55.6646C17.3633 51.2048 20.9735 47.5946 25.4333 47.5946H282.01C286.434 47.5946 290.044 51.2048 290.044 55.6292V78.6358" fill="#200F50"/>
<path opacity="0.2" d="M259.503 106.439H55.5586C47.8762 106.439 41.6484 112.667 41.6484 120.349V120.384C41.6484 128.067 47.8762 134.294 55.5586 134.294H259.503C267.185 134.294 273.413 128.067 273.413 120.384V120.349C273.413 112.667 267.185 106.439 259.503 106.439Z" fill="white"/>
<path d="M34.955 70.1823C38.6496 70.1823 41.6446 67.1872 41.6446 63.4926C41.6446 59.7981 38.6496 56.803 34.955 56.803C31.2604 56.803 28.2654 59.7981 28.2654 63.4926C28.2654 67.1872 31.2604 70.1823 34.955 70.1823Z" fill="#FFB426"/>
<path d="M52.5841 70.1823C56.2787 70.1823 59.2737 67.1872 59.2737 63.4926C59.2737 59.7981 56.2787 56.803 52.5841 56.803C48.8896 56.803 45.8945 59.7981 45.8945 63.4926C45.8945 67.1872 48.8896 70.1823 52.5841 70.1823Z" fill="white"/>
<path d="M70.9943 70.1823C74.6889 70.1823 77.6839 67.1872 77.6839 63.4926C77.6839 59.7981 74.6889 56.803 70.9943 56.803C67.2997 56.803 64.3047 59.7981 64.3047 63.4926C64.3047 67.1872 67.2997 70.1823 70.9943 70.1823Z" fill="#0F71EF"/>
<path opacity="0.2" d="M137.994 147.696H47.9149C44.0053 147.696 40.8359 150.865 40.8359 154.774V236.218C40.8359 240.127 44.0053 243.297 47.9149 243.297H137.994C141.904 243.297 145.073 240.127 145.073 236.218V154.774C145.073 150.865 141.904 147.696 137.994 147.696Z" fill="white"/>
<path opacity="0.2" d="M266.33 147.696H176.251C172.341 147.696 169.172 150.865 169.172 154.774V236.218C169.172 240.127 172.341 243.297 176.251 243.297H266.33C270.24 243.297 273.409 240.127 273.409 236.218V154.774C273.409 150.865 270.24 147.696 266.33 147.696Z" fill="white"/>
<path d="M260.239 304.169L335.824 228.585C338.408 226 338.408 221.809 335.824 219.224L260.239 143.64C257.655 141.055 253.464 141.055 250.879 143.64L175.295 219.224C172.71 221.809 172.71 226 175.295 228.585L250.879 304.169C253.464 306.754 257.655 306.754 260.239 304.169Z" fill="url(#paint2_linear_14473_75983)"/>
<path d="M248.069 271.373C245.98 269.356 244.918 266.914 244.918 263.976C244.918 261.038 245.98 258.596 248.069 256.578C250.157 254.561 252.705 253.57 255.714 253.57C258.722 253.57 261.271 254.561 263.359 256.578C265.447 258.596 266.509 261.038 266.509 263.976C266.509 266.914 265.447 269.356 263.359 271.373C261.271 273.391 258.722 274.382 255.714 274.382C252.705 274.382 250.157 273.391 248.069 271.373ZM245.768 178.002H265.624L264.032 241.465H247.325L245.733 178.002H245.768Z" fill="white"/>
<path d="M311.551 123.28L299.28 135.551C296.502 138.328 296.502 142.832 299.28 145.609L311.551 157.881C314.329 160.658 318.832 160.658 321.61 157.881L333.881 145.609C336.659 142.832 336.659 138.328 333.881 135.551L321.61 123.28C318.832 120.502 314.329 120.502 311.551 123.28Z" fill="#FF3B30"/>
</g>
<defs>
<linearGradient id="paint0_linear_14473_75983" x1="-13.5" y1="89.9999" x2="278" y2="261" gradientUnits="userSpaceOnUse">
<stop stop-color="#4D3494"/>
<stop offset="1" stop-color="#6D53B8"/>
</linearGradient>
<linearGradient id="paint1_linear_14473_75983" x1="16.9385" y1="63.1329" x2="20.478" y2="63.1329" gradientUnits="userSpaceOnUse">
<stop offset="0.5" stop-color="#0F71EF"/>
<stop offset="0.55" stop-color="#1474EF"/>
<stop offset="0.62" stop-color="#257EF0"/>
<stop offset="0.69" stop-color="#418EF2"/>
<stop offset="0.77" stop-color="#68A5F4"/>
<stop offset="0.86" stop-color="#9AC3F8"/>
<stop offset="0.94" stop-color="#D5E6FC"/>
<stop offset="1" stop-color="white"/>
</linearGradient>
<linearGradient id="paint2_linear_14473_75983" x1="255.566" y1="141.685" x2="255.566" y2="306.094" gradientUnits="userSpaceOnUse">
<stop stop-color="#FF3B30"/>
<stop offset="0.38" stop-color="#FE3C31"/>
<stop offset="0.51" stop-color="#FE4238"/>
<stop offset="0.61" stop-color="#FD4D44"/>
<stop offset="0.69" stop-color="#FB5C55"/>
<stop offset="0.76" stop-color="#F9706B"/>
<stop offset="0.82" stop-color="#F78986"/>
<stop offset="0.87" stop-color="#F4A6A7"/>
<stop offset="0.92" stop-color="#F1C8CC"/>
<stop offset="0.96" stop-color="#EDEDF5"/>
<stop offset="0.97" stop-color="#EDF2FB"/>
</linearGradient>
<clipPath id="clip0_14473_75983">
<rect width="320.782" height="258.913" fill="white" transform="translate(16.9375 47.1797)"/>
</clipPath>
</defs>
</svg>
