<svg width="413" height="575" viewBox="0 0 413 575" fill="none" xmlns="http://www.w3.org/2000/svg">
<g style="mix-blend-mode:lighten" opacity="0.3">
<path d="M404.168 46.6864C407.113 38.9517 418.055 38.9517 421 46.6863L432.084 75.7927C433.961 80.726 437.857 84.6221 442.791 86.5007L471.898 97.5838C479.633 100.529 479.633 111.471 471.898 114.416L442.791 125.5C437.857 127.377 433.961 131.274 432.084 136.207L421 165.314C418.055 173.049 407.113 173.049 404.168 165.314L393.085 136.207C391.206 131.274 387.31 127.377 382.377 125.5L353.27 114.416C345.536 111.471 345.536 100.529 353.27 97.5838L382.377 86.5007C387.31 84.6221 391.206 80.726 393.085 75.7927L404.168 46.6864Z" fill="white"/>
<path d="M223.213 237.962C246.135 236.745 269.011 241.191 289.799 250.923C310.589 260.656 328.666 275.379 342.413 293.763C356.157 312.146 365.153 333.636 368.61 356.326C372.067 379.02 369.882 402.226 362.234 423.869C356.989 438.712 349.279 452.511 339.489 464.709C332.038 473.988 318.252 473.286 310.225 464.5C302.197 455.713 303.058 442.174 309.852 432.4C314.75 425.351 318.711 417.655 321.592 409.501C326.878 394.541 328.39 378.498 326 362.812C323.61 347.129 317.384 332.281 307.884 319.576C298.381 306.869 285.887 296.698 271.518 289.971C257.148 283.245 241.343 280.16 225.5 281C209.655 281.842 194.257 286.576 180.68 294.786C167.105 302.996 155.76 314.434 147.657 328.074C142.701 336.417 139.047 345.431 136.795 354.798C135.631 360.735 134.776 366.716 134.234 372.717C134.229 372.806 134.227 372.902 134.223 372.992C132.3 394.611 134.39 416.492 140.5 437.49C147.264 460.735 158.747 482.254 174.15 500.735C181.66 509.749 182.19 523.124 174.15 531.669C166.112 540.213 152.576 540.685 144.853 531.856C124.03 508.04 108.579 479.901 99.6925 449.363C92.3022 423.963 88.7967 403.711 90.8646 377.543C91.9431 354.713 98.9247 325.718 110.598 306.065C122.322 286.33 138.733 269.782 158.375 257.904C178.016 246.025 200.292 239.179 223.213 237.962ZM23.3552 267.6C28.5381 256.765 42.0054 253.475 52.3 259.662C62.5912 265.85 65.7916 279.167 60.8531 290.114C50.867 312.246 45.2891 336.193 44.5281 360.602C43.7682 385.015 47.8444 409.27 56.4336 431.982C60.6798 443.214 56.6565 456.305 46.0016 461.84C35.3423 467.374 22.1057 463.255 17.6058 452.122C5.73222 422.725 0.0686485 391.097 1.06085 359.251C2.05339 327.405 9.67514 296.199 23.3552 267.6ZM227.126 338.462C247.176 338.465 263.46 355.096 263.46 375.608C263.458 390.579 254.778 403.539 242.264 409.369V444.636C242.264 452.999 235.489 459.782 227.126 459.784C218.762 459.784 211.978 453 211.978 444.636V409.369C199.464 403.467 190.784 390.579 190.783 375.608C190.783 355.094 207.074 338.462 227.126 338.462ZM189.991 140.957C241.592 131.829 294.76 140.681 340.622 166.032C386.483 191.385 422.264 231.701 441.98 280.253C458.957 322.064 463.134 367.803 454.259 411.721C451.879 423.494 439.633 429.98 428.139 426.496C416.645 423.011 410.28 410.869 412.396 399.047C418.539 364.723 414.906 329.202 401.678 296.622C385.709 257.294 356.729 224.638 319.58 204.103C282.432 183.566 239.364 176.392 197.565 183.787C162.939 189.913 130.923 205.729 105.123 229.189C96.2388 237.267 82.5828 238.34 73.5174 230.465C64.4532 222.585 63.4175 208.751 72.1215 200.474C104.593 169.598 145.555 148.819 189.991 140.957ZM208.757 45.4144C243.941 43.0998 279.217 46.596 313.183 55.7041C324.335 58.695 330.182 70.6361 326.473 81.5714C322.762 92.5035 310.906 98.2818 299.726 95.4009C270.985 87.9922 241.199 85.1904 211.495 87.1449C174.826 89.5582 138.99 99.1692 106.036 115.43C73.0818 131.692 43.6534 154.284 19.4307 181.918C-0.191731 204.304 -16.0927 229.652 -27.6976 256.969C-32.2137 267.593 -44.006 273.484 -54.9389 269.777C-65.8741 266.067 -71.7947 254.163 -67.3833 243.491C-53.9486 210.994 -35.2618 180.872 -12.0212 154.357C15.8221 122.592 49.6546 96.6247 87.5336 77.9325C125.414 59.2404 166.607 48.1877 208.757 45.4144Z" fill="white"/>
</g>
</svg>