<svg width="117" height="34" viewBox="0 0 117 34" fill="none" xmlns="http://www.w3.org/2000/svg">
<path d="M28.5846 2.75567C28.7584 2.29914 29.4042 2.29914 29.578 2.75567L30.2323 4.47366C30.3431 4.76485 30.5731 4.99482 30.8643 5.1057L32.5823 5.75988C33.0388 5.93372 33.0388 6.57957 32.5823 6.75339L30.8643 7.40761C30.5731 7.51844 30.3431 7.74841 30.2323 8.03963L29.578 9.75763C29.4042 10.2142 28.7584 10.2142 28.5846 9.75763L27.9303 8.03963C27.8194 7.74841 27.5895 7.51844 27.2983 7.40761L25.5803 6.75339C25.1238 6.57957 25.1238 5.93372 25.5803 5.75988L27.2983 5.1057C27.5895 4.99482 27.8194 4.76485 27.9303 4.47366L28.5846 2.75567Z" fill="#1844D7"/>
<path d="M17.9037 14.0457C19.2566 13.9738 20.6068 14.2363 21.8339 14.8107C23.061 15.3852 24.128 16.2542 24.9394 17.3393C25.7506 18.4244 26.2816 19.6928 26.4857 21.0321C26.6897 22.3716 26.5608 23.7413 26.1094 25.0188C25.7997 25.8949 25.3446 26.7094 24.7668 27.4294C24.327 27.977 23.5133 27.9356 23.0395 27.417C22.5656 26.8983 22.6165 26.0992 23.0175 25.5223C23.3066 25.1063 23.5404 24.652 23.7104 24.1707C24.0225 23.2877 24.1117 22.3408 23.9706 21.4149C23.8296 20.4892 23.4621 19.6128 22.9013 18.8629C22.3404 18.1129 21.603 17.5125 20.7548 17.1155C19.9067 16.7185 18.9738 16.5364 18.0386 16.586C17.1034 16.6357 16.1945 16.9151 15.3931 17.3997C14.5919 17.8843 13.9222 18.5594 13.444 19.3645C13.1515 19.8569 12.9358 20.389 12.8028 20.9419C12.7341 21.2923 12.6837 21.6454 12.6517 21.9996C12.6514 22.0048 12.6513 22.0105 12.651 22.0158C12.5375 23.2919 12.6609 24.5833 13.0215 25.8227C13.4208 27.1948 14.0986 28.4649 15.0077 29.5557C15.451 30.0878 15.4823 30.8773 15.0077 31.3817C14.5333 31.886 13.7343 31.9138 13.2784 31.3927C12.0494 29.987 11.1374 28.3261 10.6129 26.5235C10.1767 25.0243 9.96976 23.8289 10.0918 22.2844C10.1555 20.9368 10.5676 19.2254 11.2566 18.0654C11.9486 16.9006 12.9173 15.9238 14.0766 15.2227C15.2359 14.5216 16.5507 14.1175 17.9037 14.0457ZM6.10709 15.795C6.41301 15.1555 7.20791 14.9613 7.81555 15.3265C8.42299 15.6918 8.61189 16.4778 8.32039 17.1239C7.73096 18.4303 7.40173 19.8437 7.35681 21.2845C7.31196 22.7254 7.55256 24.1571 8.05953 25.4976C8.31016 26.1606 8.07269 26.9333 7.44379 27.26C6.81462 27.5867 6.03334 27.3435 5.76773 26.6864C5.0669 24.9513 4.7326 23.0844 4.79117 21.2047C4.84975 19.325 5.29962 17.4831 6.10709 15.795ZM18.1346 19.9776C19.3181 19.9778 20.2792 20.9594 20.2792 22.1702C20.2791 23.0538 19.7668 23.8188 19.0281 24.1629V26.2445C19.0281 26.7382 18.6283 27.1385 18.1346 27.1387C17.641 27.1387 17.2405 26.7382 17.2405 26.2445V24.1629C16.5019 23.8146 15.9895 23.0538 15.9895 22.1702C15.9895 20.9594 16.9511 19.9776 18.1346 19.9776ZM15.9428 8.31996C18.9885 7.78116 22.1267 8.30368 24.8337 9.80002C27.5406 11.2965 29.6526 13.6761 30.8163 16.5419C31.8184 19.0097 32.0649 21.7095 31.5411 24.3018C31.4006 24.9966 30.6778 25.3795 29.9994 25.1738C29.3209 24.9681 28.9452 24.2514 29.0701 23.5536C29.4327 21.5277 29.2183 19.4311 28.4375 17.508C27.4949 15.1867 25.7844 13.2592 23.5917 12.0471C21.399 10.835 18.857 10.4115 16.3898 10.848C14.346 11.2096 12.4563 12.1431 10.9334 13.5278C10.409 14.0047 9.60298 14.068 9.0679 13.6031C8.53289 13.138 8.47176 12.3215 8.98551 11.833C10.9021 10.0105 13.3199 8.78401 15.9428 8.31996ZM17.0504 2.68059C19.1271 2.54397 21.2092 2.75033 23.2141 3.28793C23.8724 3.46447 24.2175 4.16929 23.9985 4.81474C23.7795 5.46001 23.0797 5.80107 22.4198 5.63102C20.7234 5.19373 18.9653 5.02836 17.212 5.14372C15.0476 5.28616 12.9324 5.85345 10.9873 6.81326C9.04219 7.77312 7.30518 9.1066 5.87544 10.7377C4.71724 12.059 3.77868 13.5552 3.09371 15.1676C2.82714 15.7946 2.13111 16.1423 1.48579 15.9235C0.840349 15.7046 0.490888 15.0019 0.751267 14.372C1.54425 12.4539 2.64723 10.676 4.01901 9.11092C5.66245 7.23598 7.6594 5.70326 9.8952 4.59996C12.1311 3.49666 14.5625 2.84428 17.0504 2.68059Z" fill="url(#paint0_linear_37_685)"/>
<path d="M63.1162 26.8387H61.5515C60.8903 26.8387 60.3504 26.2988 60.3504 25.6376V15.2355L54.367 26.2106C54.1576 26.5963 53.7499 26.8387 53.3091 26.8387H52.9014C52.4607 26.8387 52.053 26.5963 51.8436 26.2106L45.8271 15.2245V25.6266C45.8271 26.2877 45.2872 26.8277 44.626 26.8277H43.0613C42.4002 26.8277 41.8602 26.2877 41.8602 25.6266V7.85267C41.8602 7.19152 42.4002 6.65158 43.0613 6.65158H44.7252C45.166 6.65158 45.5737 6.894 45.783 7.27967L53.0998 20.6129L60.4385 7.27967C60.6479 6.894 61.0556 6.65158 61.4964 6.65158H63.1382C63.7994 6.65158 64.3393 7.19152 64.3393 7.85267V25.6376C64.3393 26.2988 63.7994 26.8387 63.1382 26.8387H63.1162Z" fill="#05153F"/>
<path d="M83.6561 19.3346C83.6561 24.0728 79.9427 27.2353 75.546 27.2353C71.1494 27.2353 67.3478 24.0728 67.3478 19.3346C67.3478 14.5963 71.0612 11.4338 75.546 11.4338C80.0308 11.4338 83.6561 14.5963 83.6561 19.3346ZM79.7994 19.3346C79.7994 16.5357 77.6287 14.8388 75.546 14.8388C73.4634 14.8388 71.2045 16.5247 71.2045 19.3346C71.2045 22.1445 73.3753 23.8304 75.546 23.8304C77.7168 23.8304 79.7994 22.1445 79.7994 19.3346Z" fill="#05153F"/>
<path d="M97.8266 26.8387H86.8846C86.2234 26.8387 85.6835 26.2988 85.6835 25.6376V24.701C85.6835 24.4035 85.7937 24.128 85.981 23.9076L93.7605 15.0592H87.0939C86.4328 15.0592 85.8928 14.5193 85.8928 13.8582V13.0097C85.8928 12.3485 86.4328 11.8086 87.0939 11.8086H97.463C98.1241 11.8086 98.664 12.3485 98.664 13.0097V14.0014C98.664 14.2989 98.5539 14.5744 98.3665 14.7948L90.587 23.5881H97.8266C98.4877 23.5881 99.0277 24.128 99.0277 24.7892V25.6376C99.0277 26.2988 98.4877 26.8387 97.8266 26.8387Z" fill="#05153F"/>
<path d="M117 19.3346C117 24.0728 113.287 27.2353 108.89 27.2353C104.493 27.2353 100.692 24.0728 100.692 19.3346C100.692 14.5963 104.405 11.4338 108.89 11.4338C113.375 11.4338 117 14.5963 117 19.3346ZM113.143 19.3346C113.143 16.5357 110.973 14.8388 108.89 14.8388C106.807 14.8388 104.548 16.5247 104.548 19.3346C104.548 22.1445 106.719 23.8304 108.89 23.8304C111.061 23.8304 113.143 22.1445 113.143 19.3346Z" fill="#05153F"/>
<defs>
<linearGradient id="paint0_linear_37_685" x1="16.3657" y1="2.76987" x2="17.3544" y2="31.7719" gradientUnits="userSpaceOnUse">
<stop stop-color="#0F71F2"/>
<stop offset="1" stop-color="#1844D7"/>
</linearGradient>
</defs>
</svg>
